<svg width="100%" height="100%" viewBox="0 0 18 18" fill="none" xmlns="http://www.w3.org/2000/svg">
<mask id="mask0_636_17000" style="mask-type:alpha" maskUnits="userSpaceOnUse" x="0" y="0" width="18" height="18">
<rect width="18" height="18" fill="#D9D9D9"/>
</mask>
<g mask="url(#mask0_636_17000)">
<path d="M7.27422 16.125L6.97422 13.8375C6.77422 13.775 6.57122 13.6813 6.36522 13.5563C6.15872 13.4313 5.96797 13.3 5.79297 13.1625L3.67422 14.0625L1.94922 11.0625L3.78672 9.675C3.76172 9.5625 3.74622 9.45 3.74022 9.3375C3.73372 9.225 3.73047 9.1125 3.73047 9C3.73047 8.9 3.73372 8.79375 3.74022 8.68125C3.74622 8.56875 3.76172 8.45 3.78672 8.325L1.94922 6.9375L3.67422 3.95625L5.79297 4.8375C5.96797 4.7 6.15872 4.572 6.36522 4.4535C6.57122 4.3345 6.77422 4.2375 6.97422 4.1625L7.27422 1.875H10.7242L11.0242 4.1625C11.2492 4.25 11.4522 4.34675 11.6332 4.45275C11.8147 4.55925 11.9992 4.6875 12.1867 4.8375L14.3242 3.95625L16.0492 6.9375L14.193 8.34375C14.218 8.46875 14.2305 8.58125 14.2305 8.68125V9C14.2305 9.1 14.2272 9.203 14.2207 9.309C14.2147 9.4155 14.1992 9.5375 14.1742 9.675L16.0117 11.0625L14.2867 14.0625L12.1867 13.1625C11.9992 13.3125 11.8087 13.4438 11.6152 13.5563C11.4212 13.6688 11.2242 13.7625 11.0242 13.8375L10.7242 16.125H7.27422ZM8.99922 11.25C9.62422 11.25 10.1555 11.0312 10.593 10.5938C11.0305 10.1562 11.2492 9.625 11.2492 9C11.2492 8.375 11.0305 7.84375 10.593 7.40625C10.1555 6.96875 9.62422 6.75 8.99922 6.75C8.37422 6.75 7.84297 6.96875 7.40547 7.40625C6.96797 7.84375 6.74922 8.375 6.74922 9C6.74922 9.625 6.96797 10.1562 7.40547 10.5938C7.84297 11.0312 8.37422 11.25 8.99922 11.25ZM8.99922 10.125C8.68672 10.125 8.42122 10.0155 8.20272 9.7965C7.98372 9.578 7.87422 9.3125 7.87422 9C7.87422 8.6875 7.98372 8.422 8.20272 8.2035C8.42122 7.9845 8.68672 7.875 8.99922 7.875C9.31172 7.875 9.57722 7.9845 9.79572 8.2035C10.0147 8.422 10.1242 8.6875 10.1242 9C10.1242 9.3125 10.0147 9.578 9.79572 9.7965C9.57722 10.0155 9.31172 10.125 8.99922 10.125ZM8.24922 15H9.73047L9.99297 12.9938C10.3805 12.8938 10.7305 12.75 11.043 12.5625C11.3555 12.375 11.6617 12.1375 11.9617 11.85L13.818 12.6375L14.568 11.3625L12.9367 10.1437C12.9992 9.94375 13.04 9.75 13.059 9.5625C13.0775 9.375 13.0867 9.1875 13.0867 9C13.0867 8.8 13.0775 8.6095 13.059 8.4285C13.04 8.247 12.9992 8.0625 12.9367 7.875L14.568 6.6375L13.8367 5.3625L11.943 6.15C11.693 5.8875 11.393 5.653 11.043 5.4465C10.693 5.2405 10.343 5.09375 9.99297 5.00625L9.74922 3H8.26797L8.00547 5.00625C7.63047 5.09375 7.28047 5.23125 6.95547 5.41875C6.63047 5.60625 6.31797 5.84375 6.01797 6.13125L4.16172 5.3625L3.43047 6.6375L5.04297 7.8375C4.98047 8.025 4.93672 8.2125 4.91172 8.4C4.88672 8.5875 4.87422 8.7875 4.87422 9C4.87422 9.2 4.88672 9.39375 4.91172 9.58125C4.93672 9.76875 4.98047 9.95625 5.04297 10.1437L3.43047 11.3625L4.16172 12.6375L6.01797 11.85C6.30547 12.1375 6.61172 12.375 6.93672 12.5625C7.26172 12.75 7.61797 12.8938 8.00547 12.9938L8.24922 15Z" fill="currentColor"/>
</g>
</svg>
