<svg width="100%" height="100%" viewBox="0 0 24 24" fill="none" xmlns="http://www.w3.org/2000/svg">
<mask id="mask0_636_16994" style="mask-type:alpha" maskUnits="userSpaceOnUse" x="0" y="0" width="24" height="24">
<rect width="24" height="24" fill="#D9D9D9"/>
</mask>
<g mask="url(#mask0_636_16994)">
<path d="M10 15.75H14C14.2167 15.75 14.396 15.679 14.538 15.537C14.6793 15.3957 14.75 15.2167 14.75 15V13.25H13.25V14.25H10.75V9.75H13.25V10.75H14.75V9C14.75 8.78333 14.6793 8.604 14.538 8.462C14.396 8.32067 14.2167 8.25 14 8.25H10C9.78333 8.25 9.60433 8.32067 9.463 8.462C9.321 8.604 9.25 8.78333 9.25 9V15C9.25 15.2167 9.321 15.3957 9.463 15.537C9.60433 15.679 9.78333 15.75 10 15.75ZM12 21.5C10.6833 21.5 9.446 21.25 8.288 20.75C7.12933 20.25 6.125 19.575 5.275 18.725C4.425 17.875 3.75 16.8707 3.25 15.712C2.75 14.554 2.5 13.3167 2.5 12C2.5 10.6833 2.75 9.44567 3.25 8.287C3.75 7.129 4.425 6.125 5.275 5.275C6.125 4.425 7.12933 3.75 8.288 3.25C9.446 2.75 10.6833 2.5 12 2.5C13.3167 2.5 14.5543 2.75 15.713 3.25C16.871 3.75 17.875 4.425 18.725 5.275C19.575 6.125 20.25 7.129 20.75 8.287C21.25 9.44567 21.5 10.6833 21.5 12C21.5 13.3167 21.25 14.554 20.75 15.712C20.25 16.8707 19.575 17.875 18.725 18.725C17.875 19.575 16.871 20.25 15.713 20.75C14.5543 21.25 13.3167 21.5 12 21.5ZM12 20C14.2333 20 16.125 19.225 17.675 17.675C19.225 16.125 20 14.2333 20 12C20 9.76667 19.225 7.875 17.675 6.325C16.125 4.775 14.2333 4 12 4C9.76667 4 7.875 4.775 6.325 6.325C4.775 7.875 4 9.76667 4 12C4 14.2333 4.775 16.125 6.325 17.675C7.875 19.225 9.76667 20 12 20Z" fill="currentColor"/>
</g>
</svg>
